<svg xmlns="http://www.w3.org/2000/svg" viewBox="0 0 126.47 126.47"><defs><style>.cls-1{stroke:#000;stroke-miterlimit:10;stroke-width:1.47px;}.cls-2{fill:#fff;}</style></defs><g id="Layer_2" data-name="Layer 2"><g id="fav"><circle class="cls-1" cx="63.24" cy="63.24" r="62.5"/><path class="cls-2" d="M63.24,18.15h0L84.07,54.24,104.9,90.32H21.57L42.4,54.24,63.22,18.15h0m0-3.33a3.3,3.3,0,0,0-2.89,1.67L39.52,52.57,18.69,88.66a3.33,3.33,0,0,0,2.88,5H104.9a3.32,3.32,0,0,0,2.88-5L87,52.57,66.12,16.49a3.3,3.3,0,0,0-2.88-1.67Z"/><path class="cls-2" d="M70.76,58.47H55.71L49.44,69.34a1,1,0,0,0,.89,1.54H76.14A1,1,0,0,0,77,69.34Z"/><path class="cls-2" d="M69.32,56l-5.2-9a1,1,0,0,0-1.77,0l-5.2,9Z"/><rect class="cls-2" x="46.98" y="69.23" width="32.51" height="1.87" rx="0.93"/></g></g></svg>