<?xml version="1.0" encoding="utf-8"?>
<!-- Generator: Adobe Illustrator 26.0.1, SVG Export Plug-In . SVG Version: 6.00 Build 0)  -->
<svg version="1.1" xmlns="http://www.w3.org/2000/svg" xmlns:xlink="http://www.w3.org/1999/xlink" x="0px" y="0px"
	 viewBox="0 0 315 75" style="enable-background:new 0 0 315 75;" xml:space="preserve">
<style type="text/css">
	.st0{display:none;}
	.st1{display:inline;}
	.st2{fill:#FFFFFF;}
	.st3{fill:none;stroke:#FFFFFF;stroke-width:1.0445;stroke-linecap:round;stroke-miterlimit:10;}
	.st4{fill:none;stroke:#FFFFFF;stroke-width:3;stroke-linecap:round;stroke-miterlimit:10;}
</style>
<g id="Layer_1" class="st0">
	<rect class="st1" width="315" height="75"/>
</g>
<g id="Layer_2">
	<g>
		<g>
			<path class="st2" d="M305.1,60.6c0.2,0,0.4,0.2,0.4,0.4v10.4c0,0.2-0.2,0.4-0.4,0.4H290c-0.2,0-0.4-0.2-0.4-0.4V61
				c0-0.2,0.2-0.4,0.4-0.4H305.1 M305.1,59.6H290c-0.8,0-1.4,0.6-1.4,1.4v10.4c0,0.8,0.6,1.4,1.4,1.4h15.1c0.8,0,1.4-0.6,1.4-1.4V61
				C306.5,60.2,305.9,59.6,305.1,59.6L305.1,59.6z"/>
		</g>
		<g>
			<circle class="st2" cx="311" cy="71.5" r="1.5"/>
		</g>
		<path class="st3" d="M285.4,60.2h-15.1c-0.8,0-1.4,0.6-1.4,1.3v9.4c0,0.7,0.6,1.3,1.4,1.3h15.1"/>
		<g>
			<path class="st2" d="M210.5,49v21h-32V49H210.5 M210.5,46h-32c-1.7,0-3,1.3-3,3v21c0,1.7,1.3,3,3,3h32c1.7,0,3-1.3,3-3V49
				C213.5,47.4,212.2,46,210.5,46L210.5,46z"/>
		</g>
		<g>
			<g>
				<path class="st2" d="M123.5,49v21h-32V49H123.5 M123.5,46h-32c-1.7,0-3,1.3-3,3v21c0,1.7,1.3,3,3,3h32c1.7,0,3-1.3,3-3V49
					C126.5,47.4,125.2,46,123.5,46L123.5,46z"/>
			</g>
			<line class="st4" x1="90" y1="49.5" x2="90" y2="3.5"/>
		</g>
		<line class="st4" x1="221" y1="72" x2="221" y2="3.5"/>
		<line class="st4" x1="250" y1="72" x2="250" y2="3.5"/>
		<line class="st4" x1="262.5" y1="27.9" x2="175.5" y2="27.9"/>
		<g>
			<path class="st2" d="M43,5l18.8,32.5L80.6,70H43H5.5l18.8-32.5L43,5L43,5 M43,2c-1,0-2,0.5-2.6,1.5L21.7,36L2.9,68.5
				c-1.2,2,0.3,4.5,2.6,4.5H43h37.6c2.3,0,3.8-2.5,2.6-4.5L64.4,36L45.6,3.5C45.1,2.5,44,2,43,2L43,2z"/>
		</g>
		<g>
			<g>
				<path class="st2" d="M167.7,49v21h-32V49H167.7 M167.7,46h-32c-1.7,0-3,1.3-3,3v21c0,1.7,1.3,3,3,3h32c1.7,0,3-1.3,3-3V49
					C170.7,47.4,169.3,46,167.7,46L167.7,46z"/>
			</g>
			<line class="st4" x1="134.2" y1="49.5" x2="134.2" y2="3.5"/>
		</g>
		<g>
			<g>
				<path class="st2" d="M49.8,41.3H36.2l-5.6,9.8c-0.4,0.6,0.1,1.4,0.8,1.4h23.3c0.7,0,1.2-0.8,0.8-1.4L49.8,41.3z"/>
			</g>
			<g>
				<path class="st2" d="M48.5,39.1L43.8,31c-0.3-0.6-1.2-0.6-1.6,0l-4.7,8.1H48.5z"/>
			</g>
			<g>
				<path class="st2" d="M56.8,51H29.2c-0.5,0-0.8,0.4-0.8,0.8l0,0c0,0.5,0.4,0.8,0.8,0.8h27.6c0.5,0,0.8-0.4,0.8-0.8l0,0
					C57.7,51.4,57.3,51,56.8,51z"/>
			</g>
		</g>
	</g>
</g>
</svg>
