<svg xmlns="http://www.w3.org/2000/svg" viewBox="0 0 310.06 71.54"><defs><style>.cls-1,.cls-2{fill:none;stroke:#000;stroke-linecap:round;stroke-miterlimit:10;}.cls-1{stroke-width:1.04px;}.cls-2{stroke-width:3px;}</style></defs><g id="Layer_2" data-name="Layer 2"><g id="logo_blk"><path d="M302.61,58.6a.45.45,0,0,1,.45.45V69.41a.45.45,0,0,1-.45.44h-15.1a.45.45,0,0,1-.45-.44V59.05a.45.45,0,0,1,.45-.45h15.1m0-1h-15.1a1.45,1.45,0,0,0-1.45,1.45V69.41a1.45,1.45,0,0,0,1.45,1.44h15.1a1.45,1.45,0,0,0,1.45-1.44V59.05a1.45,1.45,0,0,0-1.45-1.45Z"/><circle cx="308.56" cy="69.54" r="1.5"/><path class="cls-1" d="M283,58.23h-15.1a1.38,1.38,0,0,0-1.45,1.31v9.38a1.39,1.39,0,0,0,1.45,1.31H283"/><path d="M208.06,47.05v21h-32v-21h32m0-3h-32a3,3,0,0,0-3,3v21a3,3,0,0,0,3,3h32a3,3,0,0,0,3-3v-21a3,3,0,0,0-3-3Z"/><path d="M121.06,47.05v21h-32v-21h32m0-3h-32a3,3,0,0,0-3,3v21a3,3,0,0,0,3,3h32a3,3,0,0,0,3-3v-21a3,3,0,0,0-3-3Z"/><line class="cls-2" x1="87.56" y1="47.54" x2="87.56" y2="1.54"/><line class="cls-2" x1="218.56" y1="70.04" x2="218.56" y2="1.54"/><line class="cls-2" x1="247.56" y1="70.04" x2="247.56" y2="1.54"/><line class="cls-2" x1="260.06" y1="25.91" x2="173.06" y2="25.91"/><path d="M40.56,3,59.34,35.52,78.12,68.05H3L21.78,35.52,40.55,3h0m0-3A3,3,0,0,0,38,1.5L19.18,34,.41,66.55A3,3,0,0,0,3,71.05H78.12a3,3,0,0,0,2.59-4.5L61.94,34,43.16,1.5A3,3,0,0,0,40.56,0Z"/><path d="M165.18,47.05v21h-32v-21h32m0-3h-32a3,3,0,0,0-3,3v21a3,3,0,0,0,3,3h32a3,3,0,0,0,3-3v-21a3,3,0,0,0-3-3Z"/><line class="cls-2" x1="131.68" y1="47.54" x2="131.68" y2="1.54"/><path d="M47.34,39.34H33.78l-5.65,9.8a.93.93,0,0,0,.8,1.39H52.19a.93.93,0,0,0,.8-1.39Z"/><path d="M46,37.09,41.36,29a.92.92,0,0,0-1.6,0l-4.68,8.1Z"/><rect x="25.91" y="49.04" width="29.3" height="1.68" rx="0.84"/></g></g></svg>