<svg xmlns="http://www.w3.org/2000/svg" viewBox="0 0 255.06 71.53"><defs><style>.cls-1{fill:#fff;}.cls-2,.cls-3,.cls-4{fill:none;stroke:#fff;stroke-linecap:round;stroke-miterlimit:10;}.cls-2{stroke-width:3px;}.cls-3{stroke-width:2.99px;}.cls-4{stroke-width:2.74px;}</style></defs><g id="Layer_2" data-name="Layer 2"><g id="Logo"><path class="cls-1" d="M164.06,47.05v21h-32v-21h32m0-3h-32a3,3,0,0,0-3,3v21a3,3,0,0,0,3,3h32a3,3,0,0,0,3-3v-21a3,3,0,0,0-3-3Z"/><path class="cls-1" d="M121.06,47.05v21h-32v-21h32m0-3h-32a3,3,0,0,0-3,3v21a3,3,0,0,0,3,3h32a3,3,0,0,0,3-3v-21a3,3,0,0,0-3-3Z"/><line class="cls-2" x1="87.56" y1="47.54" x2="87.56" y2="1.54"/><line class="cls-3" x1="174.56" y1="70.04" x2="174.56" y2="1.54"/><line class="cls-3" x1="192.56" y1="70.04" x2="192.56" y2="1.54"/><line class="cls-4" x1="205.06" y1="31.91" x2="130.06" y2="31.91"/><path class="cls-1" d="M40.56,3.08,59.3,35.54,78.05,68h-75L21.82,35.54,40.56,3.08m0-3.08A3,3,0,0,0,38,1.5L19.18,34,.41,66.55A3,3,0,0,0,3,71.05H78.12a3,3,0,0,0,2.59-4.5L61.94,34,43.16,1.5A3,3,0,0,0,40.56,0Z"/><path class="cls-2" d="M226.56,59H215.13a1.1,1.1,0,0,0-1.07,1.13V68.1a1.1,1.1,0,0,0,1.07,1.13h11.43"/><path class="cls-1" d="M246.06,60.6v7.25h-12V60.6h12m1.55-3h-15.1a1.45,1.45,0,0,0-1.45,1.45V69.41a1.45,1.45,0,0,0,1.45,1.44h15.1a1.45,1.45,0,0,0,1.45-1.44V59.05a1.45,1.45,0,0,0-1.45-1.45Z"/><path class="cls-1" d="M253.56,68a1.5,1.5,0,1,0,1.5,1.5,1.5,1.5,0,0,0-1.5-1.5Z"/><polygon class="cls-1" points="29.93 49.03 34.64 40.84 46.48 40.84 51.2 49.03 29.93 49.03"/><path class="cls-1" d="M45.61,42.34l3,5.19H32.52l3-5.19h10.1m1.73-3H33.78l-5.65,9.8a.93.93,0,0,0,.8,1.39H52.19a.93.93,0,0,0,.8-1.39l-5.65-9.8Z"/><polygon points="37.68 35.59 40.56 30.6 43.44 35.59 37.68 35.59"/><path class="cls-1" d="M40.56,33.6l.28.49h-.56l.28-.49m0-5.08a.91.91,0,0,0-.8.47l-4.68,8.1H46L41.36,29a.92.92,0,0,0-.8-.47Z"/></g></g></svg>