<svg xmlns="http://www.w3.org/2000/svg" viewBox="0 0 79.9 320"><g id="fb_blk"><path d="M80.45,1V31.08l0,.05c-7.67,0-15.34-.05-23,0-4.49,0-7,2-6.71,6.61.23,3.77.14,7.55,0,11.28-.09,1.64.4,2,2.05,2C62,51,71.21,51,80.45,51v2.71A47.33,47.33,0,0,0,79,61.4c-1,5.86-2,11.72-3,17.62-.26,1.47-.66,2.09-2.3,2.09-6.93-.09-13.91,0-20.84-.09-1.95,0-2.26.54-2.26,2.31q.06,38.69,0,77.33H20.54q0-38.76,0-77.55c0-1.64-.36-2.13-2-2.09-6,.14-12,0-18,0V51l0,0c6.07,0,12.1,0,18.17,0,1.46.05,1.86-.4,1.82-1.82-.13-3.15,0-6.34,0-9.5,0-3-.45-6.12.08-9A35,35,0,0,1,32.88,9.24,34.26,34.26,0,0,1,54.74,1.07C63.31.94,71.88,1,80.45,1Z" transform="translate(-0.55 -1)"/></g><g id="fb_blk_copy" data-name="fb_blk copy"><path d="M80.45,161.37v30l0,.05c-7.67,0-15.34-.05-23,0-4.49,0-7,2-6.71,6.61.23,3.77.14,7.55,0,11.28-.09,1.64.4,2,2.05,2,9.24-.09,18.47-.05,27.71-.05v2.71A47.33,47.33,0,0,0,79,221.74c-1,5.86-2,11.72-3,17.62-.26,1.47-.66,2.09-2.3,2.09-6.93-.09-13.91,0-20.84-.09-1.95,0-2.26.53-2.26,2.31q.06,38.68,0,77.33H20.54q0-38.76,0-77.55c0-1.64-.36-2.13-2-2.09-6,.13-12,0-18,0V211.35l0,0c6.07,0,12.1-.05,18.17,0,1.46.05,1.86-.4,1.82-1.82-.13-3.15,0-6.34,0-9.5s-.45-6.12.08-9.05a35,35,0,0,1,12.26-21.4,34.26,34.26,0,0,1,21.86-8.17C63.31,161.28,71.88,161.37,80.45,161.37Z" transform="translate(-0.55 -1)"/></g></svg>