<?xml version="1.0" encoding="utf-8"?>
<!-- Generator: Adobe Illustrator 26.0.1, SVG Export Plug-In . SVG Version: 6.00 Build 0)  -->
<svg version="1.1" xmlns="http://www.w3.org/2000/svg" xmlns:xlink="http://www.w3.org/1999/xlink" x="0px" y="0px"
	 viewBox="0 0 81 322" style="enable-background:new 0 0 81 322;" xml:space="preserve">
<style type="text/css">
	.st0{fill:#FFFFFF;}
</style>
<g id="fb_x5F_blk">
	<path class="st0" d="M80.5,1v30.1c0,0,0,0,0,0c-7.7,0-15.3,0-23,0c-4.5,0-7,2-6.7,6.6c0.2,3.8,0.1,7.5,0,11.3c-0.1,1.6,0.4,2,2,2
		c9.2-0.1,18.5,0,27.7,0v2.6c0,0,0,0.1,0,0.1c-0.8,2.5-1,5.1-1.4,7.7c-1,5.9-2,11.7-3,17.6c-0.3,1.5-0.7,2.1-2.3,2.1
		c-6.9-0.1-13.9,0-20.8-0.1c-2,0-2.3,0.5-2.3,2.3c0,25.8,0,51.5,0,77.3H20.5c0-25.8,0-51.7,0-77.6c0-1.6-0.4-2.1-2-2.1
		c-6,0.1-12,0-18,0l0-30.1c0,0,0,0,0,0c6.1,0,12.1,0,18.2,0c1.5,0,1.9-0.4,1.8-1.8c-0.1-3.2,0-6.3,0-9.5c0-3-0.4-6.1,0.1-9.1
		c1.6-8.5,5.4-15.8,12.3-21.4C39.3,4,46.5,1.2,54.7,1.1C63.3,0.9,71.9,1,80.5,1z"/>
</g>
<g id="fb_x5F_blk_copy">
	<path class="st0" d="M80.5,161.4v30.1c0,0,0,0,0,0c-7.7,0-15.3,0-23,0c-4.5,0-7,2-6.7,6.6c0.2,3.8,0.1,7.5,0,11.3
		c-0.1,1.6,0.4,2,2,2c9.2-0.1,18.5,0,27.7,0v2.6c0,0,0,0.1,0,0.1c-0.8,2.5-1,5.1-1.4,7.7c-1,5.9-2,11.7-3,17.6
		c-0.3,1.5-0.7,2.1-2.3,2.1c-6.9-0.1-13.9,0-20.8-0.1c-2,0-2.3,0.5-2.3,2.3c0,25.8,0,51.5,0,77.3H20.5c0-25.8,0-51.7,0-77.6
		c0-1.6-0.4-2.1-2-2.1c-6,0.1-12,0-18,0l0-30.1c0,0,0,0,0,0c6.1,0,12.1,0,18.2,0c1.5,0,1.9-0.4,1.8-1.8c-0.1-3.2,0-6.3,0-9.5
		c0-3-0.4-6.1,0.1-9.1c1.6-8.5,5.4-15.8,12.3-21.4c6.4-5.2,13.6-8.1,21.9-8.2C63.3,161.3,71.9,161.4,80.5,161.4z"/>
</g>
</svg>
