<?xml version="1.0" encoding="utf-8"?>
<!-- Generator: Adobe Illustrator 26.0.1, SVG Export Plug-In . SVG Version: 6.00 Build 0)  -->
<svg version="1.1" id="insta_x5F_blk" xmlns="http://www.w3.org/2000/svg" xmlns:xlink="http://www.w3.org/1999/xlink" x="0px"
	 y="0px" viewBox="0 0 217 433" style="enable-background:new 0 0 217 433;" xml:space="preserve">
<style type="text/css">
	.st0{fill:#FFFFFF;}
</style>
<g>
	<path class="st0" d="M215.8,70.7c-0.5-2.2-0.1-4.4-0.2-6.6c-0.3-7.1-0.5-14.2-2.6-21.1c-3.3-10.7-9-20-17.6-27.2
		C184.4,6.4,171.6,2,157.3,1.8c-3.5,0-7.1,0.2-10.6-0.3c-25.4,0-50.9,0-76.3,0C66.8,2,63.3,1.8,59.7,1.8C52.1,2,44.8,3.3,37.7,6.1
		c-8.9,3.4-16.4,8.8-22.4,16.1C6.1,33.1,1.7,46,1.5,60.3c0,3.4,0.2,7-0.3,10.4c0,25.4,0,50.9,0,76.3c0.5,2.2,0.1,4.4,0.2,6.6
		c0.3,7.1,0.5,14.2,2.6,21.1c3.3,10.7,9,20,17.6,27.2c10.9,9.3,23.8,13.7,38.1,13.9c3.5,0,7.1-0.2,10.6,0.3c25.4,0,50.9,0,76.3,0
		c2.2-0.5,4.4-0.1,6.6-0.3c7.1-0.3,14.2-0.5,21.1-2.6c10.7-3.3,20-9,27.2-17.6c9.3-10.9,13.7-23.8,13.9-38.1c0-3.5-0.2-7.1,0.3-10.6
		C215.8,121.5,215.8,96.1,215.8,70.7z M196,143c-0.2,8.1-0.2,16.2-2.5,24.2c-1.6,5.7-4,10.9-8,15.4c-6.2,7-14.1,10.7-23.1,12.2
		c-5.1,0.9-10.3,1.1-15.4,1.3c-24.3,0.9-48.6,0.3-72.9,0.3c-7.5,0-15.2-0.2-22.6-2.1c-6.2-1.6-12-4.1-17-8.5c-7-6.2-10.5-14-12.1-23
		c-0.8-4.9-1.1-9.7-1.3-14.6c-0.9-25.4-0.3-50.8-0.3-76.2c0-8.9,0.5-18,4-26.5c2.3-5.5,5.5-10.2,10.1-14.2c6.2-5.4,13.6-7.8,21.5-9
		c3.6-0.5,7.3-0.6,10.9-0.9c9.4-0.7,18.8-0.3,28.2-0.3c16.5-0.1,33-0.3,49.5,0.1c9,0.2,18.1,0.5,26.6,4.1c5.5,2.3,10.1,5.5,14,10
		c5.2,5.9,7.4,13,8.9,20.3c0.7,3.4,0.8,6.8,1,10.3c0.8,14.3,0.3,28.6,0.5,40.3C196.1,120.2,196.3,131.6,196,143z"/>
	<path class="st0" d="M165.7,64.4c-6.4,0.8-13.4-5.8-13-13.5c0.4-6.6,6.1-12.5,13.1-12.4c7.3,0.1,13,5.7,12.9,13.3
		C178.8,58.3,173.5,64.8,165.7,64.4z"/>
	<path class="st0" d="M108.4,53.5c-31,0.3-54.4,24.6-55.2,53.6c-0.9,33,25,56.4,53.4,57.1c32.9,0.8,56.4-24.9,57.1-53.7
		C164.5,78.1,138.8,53.6,108.4,53.5z M107.6,144.4c-18.7-0.4-35.2-15.8-34.7-36.5c0.4-18.7,15.8-35.1,36.7-34.6
		c18.8,0.5,34.3,15.6,34.6,35.5C144.1,128.5,128.2,144.9,107.6,144.4z"/>
</g>
<g>
	<path class="st0" d="M215.8,286c-0.5-2.2-0.1-4.4-0.2-6.6c-0.3-7.1-0.5-14.2-2.6-21.1c-3.3-10.7-9-20-17.6-27.2
		c-10.9-9.3-23.8-13.7-38.1-13.9c-3.5,0-7.1,0.2-10.6-0.3c-25.4,0-50.9,0-76.3,0c-3.5,0.5-7.1,0.3-10.6,0.3
		c-7.6,0.2-14.9,1.5-22.1,4.2c-8.9,3.4-16.4,8.8-22.4,16.1c-9.2,11-13.6,23.8-13.8,38.2c0,3.4,0.2,7-0.3,10.4c0,25.4,0,50.9,0,76.3
		c0.5,2.2,0.1,4.4,0.2,6.6c0.3,7.1,0.5,14.2,2.6,21.1c3.3,10.7,9,20,17.6,27.2c10.9,9.3,23.8,13.7,38.1,13.9c3.5,0,7.1-0.2,10.6,0.3
		c25.4,0,50.9,0,76.3,0c2.2-0.5,4.4-0.1,6.6-0.3c7.1-0.3,14.2-0.5,21.1-2.6c10.7-3.3,20-9,27.2-17.6c9.3-10.9,13.7-23.8,13.9-38.1
		c0-3.5-0.2-7.1,0.3-10.6C215.8,336.9,215.8,311.4,215.8,286z M196,358.4c-0.2,8.1-0.2,16.2-2.5,24.2c-1.6,5.7-4,10.9-8,15.4
		c-6.2,7-14.1,10.7-23.1,12.2c-5.1,0.9-10.3,1.1-15.4,1.3c-24.3,0.9-48.6,0.3-72.9,0.3c-7.5,0-15.2-0.2-22.6-2.1
		c-6.2-1.6-12-4.1-17-8.5c-7-6.2-10.5-14-12.1-23c-0.8-4.9-1.1-9.7-1.3-14.6c-0.9-25.4-0.3-50.8-0.3-76.2c0-8.9,0.5-18,4-26.5
		c2.3-5.5,5.5-10.2,10.1-14.2c6.2-5.4,13.6-7.8,21.5-9c3.6-0.5,7.3-0.6,10.9-0.9c9.4-0.7,18.8-0.3,28.2-0.3
		c16.5-0.1,33-0.3,49.5,0.1c9,0.2,18.1,0.5,26.6,4.1c5.5,2.3,10.1,5.5,14,10c5.2,5.9,7.4,13,8.9,20.3c0.7,3.4,0.8,6.8,1,10.3
		c0.8,14.3,0.3,28.6,0.5,40.3C196.1,335.6,196.3,346.9,196,358.4z"/>
	<path class="st0" d="M165.7,279.7c-6.4,0.8-13.4-5.8-13-13.5c0.4-6.6,6.1-12.5,13.1-12.4c7.3,0.1,13,5.7,12.9,13.3
		C178.8,273.7,173.5,280.2,165.7,279.7z"/>
	<path class="st0" d="M108.4,268.8c-31,0.3-54.4,24.6-55.2,53.6c-0.9,33,25,56.4,53.4,57.1c32.9,0.8,56.4-24.9,57.1-53.7
		C164.5,293.4,138.8,269,108.4,268.8z M107.6,359.8c-18.7-0.4-35.2-15.8-34.7-36.5c0.4-18.7,15.8-35.1,36.7-34.6
		c18.8,0.5,34.3,15.6,34.6,35.5C144.1,343.8,128.2,360.2,107.6,359.8z"/>
</g>
</svg>
