<svg id="Layer_1" data-name="Layer 1" xmlns="http://www.w3.org/2000/svg" viewBox="0 0 461.45 512.21"><path d="M75,590c1.67-2.67,3.2-5.44,5-8Q178,445,276,308c.58-.82,1.16-1.63,1.75-2.44,5-6.91,7.83-7.75,16.29-4.36,7.59-9.83,15.43-19.72,22.86-29.91,1.25-1.71,1.29-4.86.85-7.13C314.58,248.07,304,238.34,287.53,236c-18.57-2.68-36.49,1-54.28,5.6-7.89,2-15.66,4.53-23.42,7-4.7,1.51-9,1.43-12.25-2.63s-2.51-8.22,0-12.51c12.51-21.31,25.69-42.1,43.53-59.51,20.12-19.63,43.79-31.71,72.06-34.14A15.35,15.35,0,0,0,316,139h18c10.95,1.94,22.05,3.29,32.8,6,7.59,1.92,14.23,2.52,21.33-1.65,2.45-1.43,7.12-1.12,9.81.27q30.17,15.57,59.82,32.11c2.7,1.5,5,4.89,6.06,7.91,2.72,7.83,4.64,15.94,7.08,24.65,9.13-4.07,14.71,2.44,21,6.8,12.86,8.93,25.64,18,38.43,27,7.12,5,8,9.74,3,16.9q-30.76,44.33-61.62,88.6c-4.62,6.64-8.73,7.58-15.73,3.71-13.7-7.55-27.27-15.35-41.12-22.62-5.82-3.06-9.5-7-10.12-13.65-.21-2.27-1.1-4.49-1.79-7.16-9.05,1.05-18,2-26.84,3.21-1.14.16-2.35,1.66-3.05,2.83-5.41,9-10.8,18-15.91,27.14a7.36,7.36,0,0,0-.21,5.63c1.83,4.46.47,8-1.95,11.69q-30.84,46.68-61.56,93.45-63,95.76-126.07,191.53c-6,9.06-11,10.09-19.8,4-21.15-14.52-42.34-29-63.38-43.63C80.72,601.38,78,598,75,595Zm135-46.85c.89-1.24,1.49-2,2-2.85q60.27-91.59,120.56-183.17c1.4-2.12,1.38-3.72.75-6.26a13.87,13.87,0,0,1,1.07-9.39q12.35-22,25.64-43.43a13.21,13.21,0,0,1,8.18-5.57c13.66-2,27.43-3.38,41.18-4.72,5.64-.55,9.13,2.2,10.59,7.71,1.1,4.18,1.88,8.45,3,12.62.41,1.48,1.16,3.37,2.35,4.05,11.22,6.43,22.57,12.63,34.07,19l53.76-77.29c-10.75-7.57-21.35-14.73-31.57-22.39-4.34-3.25-8.25-4.44-13.66-2.91-7.69,2.18-11.78-.72-14-8.61-2.3-8.16-4.38-16.4-7-24.45a11.81,11.81,0,0,0-4.83-6.19C427.19,181,412,173.1,397,164.81c-3.3-1.83-6-2.26-9.19-.2-5.41,3.51-11,3.82-17.09,1.42-4.3-1.69-8.94-2.57-13.48-3.6-42.23-9.55-79.45-1.65-108.88,32-7.66,8.77-14.46,18.29-21.65,27.47a15.26,15.26,0,0,0,6.76-.45c16.59-4,33.32-6.48,50.46-5.47,27.07,1.58,44.79,15.44,52,40.43,3.2,11.11,1.7,20.94-5.64,30-8.28,10.22-16.47,20.53-24.41,31-4.44,5.88-9.17,9.71-16.74,5.58L157.7,507.22Z" transform="translate(-75 -139)"/></svg>