<svg id="Layer_1" data-name="Layer 1" xmlns="http://www.w3.org/2000/svg" viewBox="0 0 472 511.98"><path d="M70,558q30.21-62.68,60.41-125.37c10-20.68,20.07-41.3,29.9-62.05a8,8,0,0,0-.12-6.21c-25.26-48.62-6.72-106,42.26-130,2.83-1.38,3.82-2.86,3.79-6-.14-17.16-.21-34.32,0-51.48.2-17.94,12.21-32.53,29.39-36.14a35.94,35.94,0,0,1,40.7,20.67,44.65,44.65,0,0,1,3.47,16.4c.44,16.82.24,33.65.09,50.48,0,3.06.83,4.59,3.72,6,49,23.85,67.79,81.7,42.24,129.82-1.32,2.48-1.54,4.4-.13,6.82,1.57,2.69,2.76,5.6,4.63,9.46,2.83-8,5.28-15,7.71-21.9q27.11-77.47,54.19-154.95c3.51-10,7.27-11.79,17.4-8.25q61,21.33,122,42.6c4.88,1.69,8.53,4.16,10.38,9v2c-.31.75-.66,1.49-.93,2.25Q481.88,420.62,422.78,590c-3.93,11.3-8.86,13.83-18.9,9.32-.2-.09-.57.19-1.16.41-4.56,14.22-9,28.71-14,43-1.22,3.45-4.46,6.19-6.77,9.26h-5c-2.26-2.55-5.16-4.78-6.66-7.71-11-21.48-21.62-43.14-32.63-64.6a12.51,12.51,0,0,0-6.27-5.54c-16.39-6-32.93-11.62-49.41-17.39-8.84-3.1-10.83-7.28-7.74-16.09,5.45-15.54,10.81-31.11,16.46-46.57a11.25,11.25,0,0,0-.74-9.86c-10.65-20.9-21.39-41.76-31.46-62.94-3-6.25-6.06-9.65-13.28-7.95a18.24,18.24,0,0,1-7.46-.16c-4.48-.88-6.67.8-8.73,4.91q-56.29,112.74-113,225.27c-1.64,3.24-4.68,5.77-7.07,8.63h-5c-2.31-3-5.62-5.77-6.77-9.21C87.92,614.94,79,587,70,559Zm345.65-1.32c35.54-101.56,70.77-202.27,106.17-303.42L407.48,213.31c-3.85,11.06-7.42,21.35-11.05,31.81,2.19.82,3.73,1.42,5.28,2,17.27,6,34.56,12.06,51.82,18.15,6.05,2.13,8.82,6.3,7.29,10.65s-6.22,5.6-12.44,3.51l-2.37-.78q-24.72-8.67-49.45-17.34c-1.66-.58-3.36-1-5.29-1.6-5.32,15.2-10.47,29.89-15.74,44.93,8.49,3,16.48,5.74,24.46,8.55q11.63,4.08,9,11.38c-1.64,4.59-6.34,5.61-13.83,3L370.5,319l-15.91,45.63c2.59.94,4.59,1.7,6.62,2.41,17.11,6,34.24,11.95,51.33,18,5.42,1.92,7.83,5.94,6.48,10.18-1.29,4.07-5.93,5.8-11.31,4-5.54-1.81-11-3.78-16.51-5.7l-41.32-14.43c-9.95,21.19-9.95,21.19-.18,41.36a28.19,28.19,0,0,1,1.68,3.62c1.3,4,4.08,5.9,8.07,7.19,10.38,3.35,11.53,9.13,3.4,16.37ZM319.58,319.76c.18-42.13-33.73-76.56-75.7-76.86a76.49,76.49,0,1,0-1.38,153C284.7,396.15,319.41,361.88,319.58,319.76ZM108.27,619.89,214.06,409.06a98.34,98.34,0,0,1-40-25.53c-.71,1.22-1.16,1.88-1.5,2.59Q131.33,471.2,90.21,556.34a9.05,9.05,0,0,0-.27,6.06c4.46,14.45,9.16,28.83,13.78,43.24C105.13,610.05,106.54,614.45,108.27,619.89Zm269.46,0c6.35-19.76,12.4-38.23,18.1-56.8a11.78,11.78,0,0,0-.68-7.86q-40.33-83.84-81-167.51c-.62-1.27-1.39-2.46-1.89-3.34-6.49,5-12.35,10.28-18.91,14.43s-14,7.32-21.08,11C307.24,479.4,342.21,549.08,377.73,619.85ZM262.11,225.93c0-15.62,0-31.75,0-47.88,0-11.8-7.82-20.14-18.77-20.25C232.11,157.68,224,166.05,224,178c-.06,15,0,30,0,45a25,25,0,0,0,.25,3Zm30.47,315.85,31.72,11c-7-13.92-13.29-26.55-19.63-39.17a18.13,18.13,0,0,0-1.51-2.05C299.62,521.69,296.22,531.38,292.58,541.78Z" transform="translate(-70 -140.02)"/><path d="M205.87,319.15a37.19,37.19,0,1,1,36.91,37.5A37.15,37.15,0,0,1,205.87,319.15Zm37.37-19.31a19.37,19.37,0,0,0-19.74,19.43,19.6,19.6,0,1,0,19.74-19.43Z" transform="translate(-70 -140.02)"/><rect x="149" y="15.98" width="45" height="79" rx="12"/><circle cx="173.5" cy="180.47" r="28.5"/></svg>