<?xml version="1.0" encoding="utf-8"?>
<!-- Generator: Adobe Illustrator 26.0.0, SVG Export Plug-In . SVG Version: 6.00 Build 0)  -->
<svg version="1.1" id="Layer_1" xmlns="http://www.w3.org/2000/svg" xmlns:xlink="http://www.w3.org/1999/xlink" x="0px" y="0px"
	 viewBox="0 0 419 1012" style="enable-background:new 0 0 419 1012;" xml:space="preserve">
<style type="text/css">
	.st0{fill:none;stroke:#010101;stroke-width:4.5426;stroke-miterlimit:10;}
	.st1{fill:#010101;}
</style>
<g id="Meet">
	<path class="st0" d="M201.2,295.3c-2.2-49.2-41.7-88.6-90.8-90.8c-2.3-0.1-4.3,1.8-4.3,4.1v86.9c0,2.3,1.8,4.1,4.1,4.1h86.9
		C199.4,299.6,201.3,297.6,201.2,295.3z"/>
	<path class="st1" d="M97.1,309.9L97.1,309.9c-0.6-0.7-0.9-1.5-0.9-2.4l0-1.1v-88.1c0-2.3-2-4.2-4.3-4.1C41.4,216.4,1.1,258,1,309.1
		c-0.1,52.5,42.7,95.4,95.2,95.4c24.8,0,47.4-9.5,64.3-25c1.7-1.6,1.8-4.3,0.1-6L98.2,311"/>
	<path class="st1" d="M110.3,315.5l57.1,57.1c1.7,1.7,4.4,1.6,6-0.1c15.5-17,23.8-38.2,24.8-59.8c0.1-2.3-1.8-4.3-4.1-4.3h-80.9
		C109.6,308.4,107.7,312.9,110.3,315.5z"/>
</g>
<g id="Prepare">
	<g>
		<path d="M9.1,808.8c-0.7-0.6-1.4-1.1-2.1-1.7c-2.8-2.3-3.9-5.2-2.9-8.7c1-3.5,3.5-5.7,7-5.8c14.5-0.2,29-0.2,43.4,0
			c3.3,0,5.7,2.2,6.8,5.5c1.1,3.4,0.1,6.1-2.4,8.4c-0.9,0.8-1.9,1.5-2.8,2.2C40.6,808.8,24.8,808.8,9.1,808.8z"/>
		<path d="M140,808.8c-0.7-0.6-1.4-1.1-2.1-1.7c-2.8-2.3-3.8-5.2-2.9-8.7c1-3.5,3.5-5.7,7-5.8c14.5-0.2,29-0.2,43.4,0
			c3.5,0,5.9,2.4,6.9,5.9c1,3.2-0.2,5.8-2.5,8c-0.9,0.8-1.9,1.5-2.8,2.2C171.5,808.8,155.7,808.8,140,808.8z"/>
		<path d="M271.7,808.8c-0.7-0.6-1.4-1.1-2.1-1.7c-2.8-2.3-3.9-5.2-2.9-8.7c1-3.5,3.5-5.7,7-5.8c14.5-0.2,29-0.2,43.4,0
			c3.3,0,5.7,2.2,6.8,5.5c1.1,3.4,0.1,6.1-2.4,8.4c-0.9,0.8-1.9,1.5-2.8,2.2C303.2,808.8,287.5,808.8,271.7,808.8z"/>
	</g>
	<path d="M400.3,635.1c-11.4,6.5-23.1,6.6-34.9,0.6c-3.6-1.8-7.2-3.7-10.7-5.8c-14.9-9-30.2-11.4-46.9-1.9
		c2.3-9.6-1.3-15.5-9.2-19.2c-2.2,0-4.3,0-6.5,0c-0.2,0.2-0.3,0.5-0.5,0.6c-9.4,2.3-14.1,15.4-5.4,23.3c0.9,0.8,1.3,2.6,1.3,3.9
		c0.1,25.6,0,51.2,0.1,76.8c0,2.3-0.6,3.5-3,4.4c-8.1,2.9-14.2,8.3-17.9,16.2c-1,2.1-2.2,2.5-4.3,2.5c-21.9-0.1-43.9-0.1-65.8,0
		c-2.2,0-3.3-0.6-4.3-2.6c-5.9-11.5-15.3-17.7-28.3-17.8c-13.1-0.2-22.8,6.1-28.8,17.6c-1.2,2.3-2.5,2.9-4.9,2.9
		c-21.3-0.1-42.5-0.1-63.8,0c-2.7,0-4.1-0.7-5.5-3.4c-6.5-12.1-16.9-18.1-30.7-17.1c-13,1-22.1,8-27.2,20.1c-0.8,1.9-1.5,4-2.2,6
		c0,3.8,0,7.6,0,11.4c0.6,1.6,1.2,3.2,1.8,4.8c5,12.6,14.3,20.1,27.8,21.1c13.8,1,24.3-5.2,30.7-17.6c1.1-2.1,2.2-3,4.6-3
		c21.5,0.1,43.1,0.1,64.6,0c2.3,0,3.5,0.7,4.7,2.8c5.9,11.4,15.4,17.7,28.3,17.8c13.1,0.1,22.7-6.1,28.7-17.7
		c1.1-2.1,2.2-2.9,4.6-2.9c21.8,0.1,43.6,0.1,65.4,0c2.2,0,3.6,0.5,4.7,2.8c6.5,13,20.7,20.2,33.9,17.5c14.7-3,25.3-14.3,26.3-28.1
		c1.1-15.7-6.8-27.9-21.5-33.5c-1.1-0.4-2.6-1.6-2.8-2.7c-0.5-2-0.4-4,2-5.5c12.9-7.9,26.2-9.7,40.2-3.3c5.4,2.5,10.8,5.1,16,8
		c18.4,10.4,35.3,7.3,51-5.7c1.8-1.5,3.5-3,5.3-4.4c0-26.8,0-53.7,0-80.5C411.6,627.4,406.2,631.7,400.3,635.1z M32.9,767.8
		c-10.8,0-19.5-8.7-19.5-19.5c0-10.8,8.7-19.5,19.5-19.5c10.8,0,19.5,8.7,19.5,19.5C52.4,759.1,43.7,767.8,32.9,767.8z M163.2,767
		c-10.8,0-19.5-8.7-19.5-19.5s8.7-19.5,19.5-19.5c10.8,0,19.5,8.7,19.5,19.5S174,767,163.2,767z M315.6,747.5
		c0,10.8-8.7,19.5-19.5,19.5s-19.5-8.7-19.5-19.5s8.7-19.5,19.5-19.5S315.6,736.7,315.6,747.5z"/>
</g>
<g id="Quote">
	<path d="M178.1,200.5c-4.1-3.5-8.3-6.9-12.3-10.5c-9.2-8.1-18.4-16.3-27.7-24.4c-0.6-0.5-1.7-0.7-2.5-0.7c-26.4,0-52.9,0-79.3,0
		c-0.8,0-1.6,0-2.8,0c0.6-0.7,0.9-1.1,1.3-1.5c7.6-7.7,15.2-15.5,22.8-23.2c0.7-0.7,2-1.1,3-1.1c28-0.1,56.1,0,84.1,0
		c11.9,0,21.3-8.8,21.6-20.7c0.3-16.6,0.1-33.2,0.1-49.8c0-4.5,0-9.1,0-13.8c7,1.5,12.6,5.1,16.2,11.2c1.8,3.1,2.7,6.7,4.1,10.1
		c0,22.6,0,45.2,0,67.9c-0.1,0.2-0.3,0.4-0.3,0.7c-1.8,10-7.6,16.7-17.2,20c-2.7,0.9-5.6,1.1-8.5,1.7c0,0.2,0,0.6,0,1
		c0.6,9.3,1.2,18.7,2,28c0.2,2.5-0.6,4.3-2.9,5.2C179.2,200.5,178.6,200.5,178.1,200.5z"/>
	<path d="M150.4,0.5c1.1,0.3,2.2,0.5,3.3,0.8c11.7,2.7,20,13,20,25.1c0,24.4,0,48.8,0,73.3c0,14.6-11.4,26-26.1,26
		c-24.8,0-49.6,0-74.5,0c-1.4,0-2.5,0.4-3.6,1.3c-12.1,10.5-24.3,21-36.5,31.3c-1.1,0.9-2.7,1.7-4,1.8c-2.5,0.1-4.1-2-3.9-4.8
		c0.5-7.6,1-15.2,1.5-22.8c0.1-2.1,0.3-4.3,0.5-6.6c-1.6-0.2-3.3-0.3-4.9-0.6C11.1,123,3.3,115.1,1.3,104c0-0.2-0.2-0.5-0.3-0.7
		C1,76.5,1,49.8,1,23c0.1-0.4,0.3-0.7,0.4-1.1C3.5,11.8,9.4,5,19.3,1.7c1.6-0.5,3.3-0.8,5-1.2C66.3,0.5,108.4,0.5,150.4,0.5z
		 M34.3,145.7c0.7-0.5,1-0.7,1.3-1c9.9-8.5,19.9-17.1,29.8-25.7c1.7-1.5,3.5-2.1,5.8-2.1c25.3,0.1,50.6,0,75.9,0
		c10.7,0,17.9-7.2,17.9-18c0-22.5,0-45,0-67.5c0-2.2,0-4.4-0.1-6.6c-0.5-8.4-7.8-15.5-16.2-15.5c-40.8-0.1-81.6,0-122.5,0
		c-7,0-13.6,4.7-15.5,11.5c-0.9,3.5-1,7.3-1,10.9c-0.1,22.6-0.1,45.1,0,67.7c0,9,5.5,15.7,14.4,17.3c2.3,0.4,4.8,0.2,7.2,0.3
		c2.9,0.1,4.7,2,4.6,4.9c0,0.9-0.1,1.7-0.2,2.6C35.2,131.4,34.8,138.3,34.3,145.7z"/>
	<path d="M89.8,41.9c12.3,0,24.6,0,36.9,0.1c1.4,0,3.1,0.6,4.1,1.5c2.3,2,1.3,5.8-1.6,6.8c-0.9,0.3-1.8,0.4-2.8,0.4
		c-24.4,0-48.8,0-73.2,0c-0.3,0-0.7,0-1,0c-2.9-0.2-4.7-1.9-4.6-4.5c0.1-2.5,1.9-4.2,4.8-4.3c6.8,0,13.6,0,20.5,0
		C78.5,41.9,84.1,41.9,89.8,41.9z"/>
	<path d="M80.3,71.6c9.2,0,18.5,0,27.7,0c3.2,0,5.1,1.6,5.1,4.3c0,2.7-1.9,4.3-5.1,4.3c-18.5,0-36.9,0-55.4,0c-3.1,0-5.1-1.8-5-4.5
		c0.1-2.6,2-4.2,5-4.2C61.8,71.6,71.1,71.6,80.3,71.6z"/>
</g>
<g id="Design">
	<path d="M1,570.1c7.9-16.3,15.7-32.7,23.6-49c3.9-8.1,7.8-16.1,11.7-24.2c0.3-0.7,0.3-1.8,0-2.4c-9.9-19-2.6-41.4,16.5-50.8
		c1.1-0.5,1.5-1.1,1.5-2.3c-0.1-6.7-0.1-13.4,0-20.1c0.1-7,4.8-12.7,11.5-14.1c6.6-1.4,13.2,1.9,15.9,8.1c0.9,2,1.3,4.3,1.4,6.4
		c0.2,6.6,0.1,13.1,0,19.7c0,1.2,0.3,1.8,1.5,2.3c19.1,9.3,26.5,31.9,16.5,50.7c-0.5,1-0.6,1.7,0,2.7c0.6,1,1.1,2.2,1.8,3.7
		c1.1-3.1,2.1-5.8,3-8.6c7.1-20.2,14.1-40.4,21.2-60.5c1.4-3.9,2.8-4.6,6.8-3.2c15.9,5.6,31.8,11.1,47.7,16.6
		c1.9,0.7,3.3,1.6,4.1,3.5c0,0.3,0,0.5,0,0.8c-0.1,0.3-0.3,0.6-0.4,0.9c-15.4,44.1-30.9,88.2-46.2,132.3c-1.5,4.4-3.5,5.4-7.4,3.6
		c-0.1,0-0.2,0.1-0.5,0.2c-1.8,5.6-3.5,11.2-5.5,16.8c-0.5,1.3-1.7,2.4-2.6,3.6c-0.7,0-1.3,0-2,0c-0.9-1-2-1.9-2.6-3
		c-4.3-8.4-8.4-16.8-12.7-25.2c-0.5-0.9-1.5-1.8-2.4-2.2c-6.4-2.3-12.9-4.5-19.3-6.8c-3.5-1.2-4.2-2.8-3-6.3
		c2.1-6.1,4.2-12.2,6.4-18.2c0.5-1.4,0.4-2.5-0.3-3.9c-4.2-8.2-8.4-16.3-12.3-24.6c-1.2-2.4-2.4-3.8-5.2-3.1c-0.9,0.2-2,0.1-2.9-0.1
		c-1.8-0.3-2.6,0.3-3.4,1.9c-14.7,29.4-29.4,58.7-44.2,88c-0.6,1.3-1.8,2.3-2.8,3.4c-0.7,0-1.3,0-2,0c-0.9-1.2-2.2-2.3-2.6-3.6
		C8,592.3,4.5,581.4,1,570.5C1,570.4,1,570.2,1,570.1z M136,569.6c13.9-39.7,27.6-79,41.5-118.5c-15-5.2-29.8-10.4-44.7-15.6
		c-1.5,4.3-2.9,8.3-4.3,12.4c0.9,0.3,1.5,0.6,2.1,0.8c6.7,2.4,13.5,4.7,20.2,7.1c2.4,0.8,3.4,2.5,2.8,4.2c-0.6,1.7-2.4,2.2-4.9,1.4
		c-0.3-0.1-0.6-0.2-0.9-0.3c-6.4-2.3-12.9-4.5-19.3-6.8c-0.6-0.2-1.3-0.4-2.1-0.6c-2.1,5.9-4.1,11.7-6.1,17.5
		c3.3,1.2,6.4,2.2,9.6,3.3c3,1.1,4.2,2.5,3.5,4.4c-0.6,1.8-2.5,2.2-5.4,1.2c-3.2-1.1-6.3-2.2-9.6-3.3c-2.1,6-4.1,11.9-6.2,17.8
		c1,0.4,1.8,0.7,2.6,0.9c6.7,2.3,13.4,4.7,20.1,7c2.1,0.8,3.1,2.3,2.5,4c-0.5,1.6-2.3,2.3-4.4,1.6c-2.2-0.7-4.3-1.5-6.4-2.2
		c-5.4-1.9-10.8-3.8-16.1-5.6c-3.9,8.3-3.9,8.3-0.1,16.2c0.2,0.5,0.5,0.9,0.7,1.4c0.5,1.6,1.6,2.3,3.2,2.8c4.1,1.3,4.5,3.6,1.3,6.4
		C122.2,541,129,555.1,136,569.6z M98.5,477c0.1-16.5-13.2-29.9-29.6-30c-16.7-0.1-30.2,13.2-30.2,29.8c0,16.5,13.2,29.9,29.6,30
		C84.9,506.9,98.4,493.5,98.5,477z M16,594.3c13.9-27.7,27.6-54.9,41.3-82.4c-6-2.1-11.2-5.3-15.6-10c-0.3,0.5-0.5,0.7-0.6,1
		c-10.7,22.2-21.5,44.3-32.2,66.5c-0.3,0.7-0.3,1.6-0.1,2.4c1.7,5.6,3.6,11.3,5.4,16.9C14.7,590.4,15.3,592.1,16,594.3z
		 M121.2,594.3c2.5-7.7,4.8-14.9,7.1-22.2c0.3-0.9,0.2-2.2-0.3-3.1c-10.5-21.8-21.1-43.6-31.6-65.4c-0.2-0.5-0.5-1-0.7-1.3
		c-2.5,2-4.8,4-7.4,5.6c-2.6,1.6-5.5,2.9-8.2,4.3C93.7,539.4,107.3,566.6,121.2,594.3z M76,440.4c0-6.1,0-12.4,0-18.7
		c0-4.6-3.1-7.9-7.3-7.9c-4.4,0-7.5,3.2-7.6,7.9c0,5.9,0,11.7,0,17.6c0,0.5,0.1,1,0.1,1.2C66.2,440.4,71,440.4,76,440.4z M88,563.8
		c4.1,1.4,8,2.8,12.4,4.3c-2.7-5.4-5.2-10.4-7.7-15.3c-0.1-0.2-0.3-0.4-0.6-0.8C90.7,555.9,89.4,559.7,88,563.8z"/>
	<path d="M54.1,476.8c0-8.1,6.5-14.5,14.5-14.5c8.1,0,14.6,6.6,14.5,14.7c-0.1,8-6.6,14.5-14.6,14.4C60.5,491.4,54,484.8,54.1,476.8
		z M68.7,469.2c-4.3,0-7.7,3.3-7.7,7.6c0,4.2,3.5,7.7,7.7,7.7c4.1,0,7.6-3.4,7.6-7.5C76.4,472.8,72.9,469.3,68.7,469.2z"/>
	<path class="st1" d="M72.1,443.9h-8.2c-2.6,0-4.7-2.1-4.7-4.7v-21.5c0-2.6,2.1-4.7,4.7-4.7h8.2c2.6,0,4.7,2.1,4.7,4.7v21.5
		C76.8,441.8,74.7,443.9,72.1,443.9z"/>
	<circle class="st1" cx="68.8" cy="477.3" r="11.1"/>
</g>
<path id="Build" d="M1,986.9c0.7-1,1.3-2.1,2-3.1c25.5-35.7,51-71.3,76.5-107c0.2-0.3,0.5-0.6,0.7-1c1.9-2.7,3.1-3,6.4-1.7
	c3-3.8,6-7.7,8.9-11.7c0.5-0.7,0.5-1.9,0.3-2.8c-1.2-6.3-5.4-10.1-11.8-11c-7.3-1-14.2,0.4-21.2,2.2c-3.1,0.8-6.1,1.8-9.1,2.7
	c-1.8,0.6-3.5,0.6-4.8-1c-1.3-1.6-1-3.2,0-4.9c4.9-8.3,10-16.4,17-23.2c7.9-7.7,17.1-12.4,28.1-13.3c0.4,0,0.7-0.2,1.1-0.3
	c2.3,0,4.7,0,7,0c4.3,0.8,8.6,1.3,12.8,2.3c3,0.8,5.6,1,8.3-0.6c1-0.6,2.8-0.4,3.8,0.1c7.9,4.1,15.6,8.2,23.4,12.5
	c1.1,0.6,2,1.9,2.4,3.1c1.1,3.1,1.8,6.2,2.8,9.6c3.6-1.6,5.7,1,8.2,2.7c5,3.5,10,7,15,10.5c2.8,2,3.1,3.8,1.2,6.6
	c-8,11.5-16,23.1-24.1,34.6c-1.8,2.6-3.4,3-6.1,1.4c-5.3-3-10.6-6-16.1-8.8c-2.3-1.2-3.7-2.7-3.9-5.3c-0.1-0.9-0.4-1.8-0.7-2.8
	c-3.5,0.4-7,0.8-10.5,1.3c-0.4,0.1-0.9,0.6-1.2,1.1c-2.1,3.5-4.2,7-6.2,10.6c-0.3,0.6-0.3,1.6-0.1,2.2c0.7,1.7,0.2,3.1-0.8,4.6
	c-8,12.2-16,24.3-24,36.5c-16.4,24.9-32.8,49.9-49.2,74.8c-2.3,3.5-4.3,3.9-7.7,1.6c-8.3-5.7-16.5-11.3-24.7-17
	c-1.3-0.9-2.4-2.3-3.6-3.4C1,988.2,1,987.6,1,986.9z M53.7,968.6c0.3-0.5,0.6-0.8,0.8-1.1c15.7-23.8,31.4-47.7,47.1-71.5
	c0.5-0.8,0.5-1.5,0.3-2.4c-0.3-1.1-0.1-2.7,0.4-3.7c3.2-5.7,6.5-11.4,10-17c0.6-1,2-2,3.2-2.2c5.3-0.8,10.7-1.3,16.1-1.8
	c2.2-0.2,3.6,0.9,4.1,3c0.4,1.6,0.7,3.3,1.2,4.9c0.2,0.6,0.5,1.3,0.9,1.6c4.4,2.5,8.8,4.9,13.3,7.4c7-10.1,14-20.1,21-30.2
	c-4.2-3-8.3-5.8-12.3-8.7c-1.7-1.3-3.2-1.7-5.3-1.1c-3,0.9-4.6-0.3-5.5-3.4c-0.9-3.2-1.7-6.4-2.7-9.5c-0.3-0.9-1.1-2-1.9-2.4
	c-5.8-3.3-11.8-6.3-17.7-9.6c-1.3-0.7-2.3-0.9-3.6-0.1c-2.1,1.4-4.3,1.5-6.7,0.6c-1.7-0.7-3.5-1-5.3-1.4c-16.5-3.7-31-0.6-42.5,12.5
	c-3,3.4-5.6,7.1-8.5,10.7c1.1,0.2,1.9,0,2.6-0.2c6.5-1.6,13-2.5,19.7-2.1c10.6,0.6,17.5,6,20.3,15.8c1.2,4.3,0.7,8.2-2.2,11.7
	c-3.2,4-6.4,8-9.5,12.1c-1.7,2.3-3.6,3.8-6.5,2.2c-17.1,24-34.2,47.9-51.3,71.9C40.2,959.3,46.9,963.9,53.7,968.6z"/>
</svg>
