<svg id="Layer_1" data-name="Layer 1" xmlns="http://www.w3.org/2000/svg" viewBox="0 0 512 498"><path d="M491,645c-10.23-8.7-20.58-17.27-30.68-26.13-23-20.2-45.89-40.58-69-60.74-1.51-1.31-4.17-1.81-6.3-1.81q-98.73-.15-197.47-.08h-7c1.4-1.66,2.2-2.75,3.13-3.71,18.91-19.26,37.77-38.56,56.85-57.64a11.34,11.34,0,0,1,7.36-2.77q104.73-.22,209.47-.12c29.7,0,53.14-21.84,53.66-51.63.72-41.31.31-82.65.37-124,0-11.3,0-22.6,0-34.33,17.53,3.77,31.46,12.68,40.44,27.82,4.55,7.68,6.84,16.7,10.15,25.11V504a7.55,7.55,0,0,0-.78,1.72c-4.54,25-18.94,41.65-42.76,49.88-6.63,2.29-13.87,2.79-21.17,4.18,0,.6-.06,1.56,0,2.52,1.61,23.22,3.09,46.45,4.94,69.65.5,6.3-1.41,10.59-7.24,13Z" transform="translate(-50 -147)"/><path d="M422,147c2.7.63,5.4,1.27,8.11,1.89a64,64,0,0,1,49.8,62.5q.09,91.2,0,182.42c0,36.45-28.43,64.76-65,64.77q-92.72,0-185.42-.05a12.53,12.53,0,0,0-8.95,3.26q-45.32,39.21-91,78c-2.71,2.3-6.61,4.26-10,4.42-6.21.27-10.18-5-9.76-11.85,1.16-18.94,2.48-37.87,3.75-56.81.35-5.31.74-10.61,1.16-16.54-4-.5-8.14-.75-12.13-1.54-27.34-5.42-46.71-25.27-51.73-52.8A7.2,7.2,0,0,0,50,403V203a22.11,22.11,0,0,0,.91-2.71C56.24,175,71,158.13,95.56,150c4-1.33,8.29-2,12.44-3ZM132.83,508.53c1.68-1.24,2.49-1.76,3.22-2.38,24.73-21.28,49.54-42.48,74.12-63.94a20.3,20.3,0,0,1,14.43-5.3q94.47.21,189,.09c26.71,0,44.64-18,44.64-44.84q0-84,0-168c0-5.49.11-11-.2-16.48C456.8,186.83,438.5,169,417.54,169q-152.46-.21-304.93,0c-17.46,0-33.91,11.81-38.48,28.74-2.32,8.64-2.41,18.05-2.44,27.12q-.3,84.23-.08,168.46c0,22.45,13.8,39.12,35.92,43,5.83,1,11.94.49,17.92.69,7.32.24,11.73,4.85,11.52,12.12-.06,2.16-.35,4.31-.5,6.47C135.27,472.87,134.09,490.13,132.83,508.53Z" transform="translate(-50 -147)"/><path d="M271,250c30.64,0,61.29-.12,91.93.16a16.76,16.76,0,0,1,10.29,3.64c5.64,5.06,3.21,14.49-4,17a21,21,0,0,1-6.85.94q-91.2.06-182.38,0c-.83,0-1.67,0-2.5,0-7.15-.46-11.67-4.84-11.53-11.16s4.85-10.55,12.06-10.59c17-.08,34,0,51,0Z" transform="translate(-50 -147)"/><path d="M247.45,324h68.92c7.95,0,12.75,4.11,12.71,10.79s-4.7,10.78-12.76,10.79q-68.92,0-137.84,0c-7.8,0-12.64-4.41-12.48-11.1C166.16,328,171,324,178.53,324Z" transform="translate(-50 -147)"/></svg>