<svg xmlns="http://www.w3.org/2000/svg" viewBox="0 0 490.31 489.8"><defs><style>.cls-1{fill:none;stroke:#000;stroke-miterlimit:10;stroke-width:11px;}</style></defs><g id="Layer_2" data-name="Layer 2"><path class="cls-1" d="M560.24,362.19c-5.3-119-100.86-214.6-219.9-219.9a10,10,0,0,0-10.42,10V362.61a10,10,0,0,0,10,10H550.24A10,10,0,0,0,560.24,362.19Z" transform="translate(-75.44 -136.78)"/><path d="M308.26,397.7h0a8.63,8.63,0,0,1-2.26-5.82V175.7a10,10,0,0,0-10.42-10C173.21,171.15,75.66,272,75.44,395.62c-.22,127.09,103.47,231,230.55,231A229.67,229.67,0,0,0,461.8,566a10,10,0,0,0,.27-14.41l-151.3-151.3" transform="translate(-75.44 -136.78)"/><path d="M340.16,411.07,478.53,549.44a10,10,0,0,0,14.44-.3A229.64,229.64,0,0,0,553,404.41,10,10,0,0,0,543,394H347.23A10,10,0,0,0,340.16,411.07Z" transform="translate(-75.44 -136.78)"/></g></svg>